<svg viewBox="0 0 250 42" fill="none" xmlns="http://www.w3.org/2000/svg">
<path d="M54.745 38.806C54.246 38.526 53.853 38.128 53.57 37.613C53.286 37.097 53.144 36.5 53.144 35.821C53.144 35.15 53.29 34.556 53.582 34.041C53.874 33.526 54.271 33.13 54.775 32.855C55.278 32.579 55.841 32.441 56.465 32.441C57.089 32.441 57.652 32.579 58.156 32.855C58.659 33.13 59.056 33.524 59.348 34.035C59.64 34.546 59.786 35.142 59.786 35.821C59.786 36.5 59.636 37.097 59.336 37.613C59.037 38.128 58.631 38.526 58.12 38.806C57.609 39.085 57.041 39.225 56.418 39.225C55.802 39.225 55.244 39.085 54.745 38.806ZM57.52 37.991C57.863 37.808 58.14 37.532 58.353 37.164C58.564 36.796 58.67 36.348 58.67 35.822C58.67 35.296 58.567 34.847 58.359 34.48C58.151 34.112 57.879 33.838 57.543 33.659C57.207 33.479 56.844 33.389 56.452 33.389C56.052 33.389 55.686 33.479 55.356 33.659C55.023 33.838 54.758 34.113 54.558 34.48C54.359 34.847 54.259 35.295 54.259 35.822C54.259 36.358 54.357 36.809 54.553 37.176C54.749 37.544 55.011 37.818 55.338 37.997C55.665 38.176 56.026 38.267 56.417 38.267C56.808 38.267 57.176 38.174 57.52 37.991Z" fill="#63A0C4"/>
<path d="M69.17 33.154C69.666 33.637 69.913 34.334 69.913 35.245V39.117H68.834V35.401C68.834 34.745 68.67 34.244 68.342 33.897C68.014 33.549 67.566 33.375 67 33.375C66.424 33.375 65.967 33.554 65.627 33.914C65.287 34.274 65.117 34.797 65.117 35.485V39.117H64.026V32.548H65.117V33.484C65.334 33.148 65.627 32.888 65.999 32.705C66.37 32.522 66.779 32.429 67.227 32.429C68.026 32.429 68.674 32.671 69.169 33.155L69.17 33.154Z" fill="#63A0C4"/>
<path d="M80.462 36.24H75.212C75.252 36.887 75.473 37.393 75.877 37.756C76.281 38.12 76.771 38.301 77.345 38.301C77.817 38.301 78.21 38.192 78.526 37.971C78.841 37.752 79.063 37.458 79.191 37.09H80.366C80.19 37.722 79.838 38.235 79.311 38.63C78.783 39.026 78.128 39.224 77.344 39.224C76.721 39.224 76.164 39.084 75.672 38.805C75.18 38.525 74.795 38.127 74.515 37.612C74.236 37.096 74.096 36.499 74.096 35.82C74.096 35.141 74.233 34.545 74.504 34.034C74.776 33.523 75.158 33.129 75.649 32.854C76.14 32.578 76.705 32.44 77.344 32.44C77.967 32.44 78.519 32.576 78.998 32.847C79.478 33.119 79.848 33.493 80.107 33.968C80.366 34.444 80.496 34.982 80.496 35.58C80.496 35.788 80.484 36.007 80.46 36.239L80.462 36.24ZM79.095 34.281C78.912 33.982 78.662 33.753 78.346 33.597C78.031 33.442 77.681 33.364 77.297 33.364C76.746 33.364 76.277 33.54 75.888 33.891C75.501 34.243 75.279 34.731 75.223 35.354H79.371C79.371 34.938 79.279 34.58 79.095 34.281Z" fill="#63A0C4"/>
<path d="M92.078 33.448V37.32C92.078 37.64 92.146 37.865 92.282 37.997C92.418 38.129 92.654 38.195 92.989 38.195H93.792V39.118H92.81C92.202 39.118 91.747 38.979 91.443 38.699C91.139 38.419 90.987 37.96 90.987 37.321V33.449H90.135V32.55H90.987V30.896H92.078V32.55H93.792V33.449L92.078 33.448Z" fill="#63A0C4"/>
<path d="M103.873 36.24H98.623C98.663 36.887 98.884 37.393 99.288 37.756C99.692 38.12 100.182 38.301 100.756 38.301C101.228 38.301 101.621 38.192 101.937 37.971C102.252 37.752 102.474 37.458 102.602 37.09H103.777C103.601 37.722 103.249 38.235 102.722 38.63C102.194 39.026 101.539 39.224 100.755 39.224C100.132 39.224 99.575 39.084 99.083 38.805C98.591 38.525 98.206 38.127 97.926 37.612C97.647 37.096 97.507 36.499 97.507 35.82C97.507 35.141 97.644 34.545 97.915 34.034C98.187 33.523 98.569 33.129 99.06 32.854C99.551 32.578 100.116 32.44 100.755 32.44C101.378 32.44 101.93 32.576 102.409 32.847C102.889 33.119 103.259 33.493 103.518 33.968C103.777 34.444 103.907 34.982 103.907 35.58C103.907 35.788 103.895 36.007 103.871 36.239L103.873 36.24ZM102.506 34.281C102.323 33.982 102.073 33.753 101.757 33.597C101.442 33.442 101.092 33.364 100.708 33.364C100.157 33.364 99.688 33.54 99.299 33.891C98.912 34.243 98.69 34.731 98.634 35.354H102.782C102.782 34.938 102.69 34.58 102.506 34.281Z" fill="#63A0C4"/>
<path d="M108.151 34.041C108.423 33.534 108.797 33.141 109.272 32.861C109.747 32.581 110.277 32.442 110.86 32.442C111.436 32.442 111.935 32.566 112.358 32.814C112.781 33.062 113.097 33.373 113.305 33.749V32.55H114.408V39.119H113.305V37.897C113.089 38.28 112.768 38.597 112.34 38.85C111.912 39.102 111.415 39.228 110.847 39.228C110.264 39.228 109.736 39.084 109.265 38.796C108.794 38.508 108.422 38.105 108.15 37.585C107.879 37.066 107.742 36.475 107.742 35.812C107.742 35.14 107.879 34.551 108.15 34.043L108.151 34.041ZM113.006 34.527C112.806 34.159 112.536 33.877 112.196 33.681C111.857 33.486 111.483 33.387 111.075 33.387C110.667 33.387 110.297 33.484 109.961 33.675C109.625 33.867 109.357 34.147 109.157 34.514C108.958 34.882 108.858 35.314 108.858 35.809C108.858 36.312 108.958 36.749 109.157 37.121C109.357 37.493 109.625 37.777 109.961 37.972C110.297 38.168 110.668 38.267 111.075 38.267C111.482 38.267 111.856 38.168 112.196 37.972C112.535 37.777 112.806 37.493 113.006 37.121C113.205 36.749 113.305 36.316 113.305 35.821C113.305 35.326 113.205 34.894 113.006 34.527Z" fill="#63A0C4"/>
<path d="M128.327 32.746C128.726 32.958 129.042 33.276 129.274 33.699C129.505 34.122 129.621 34.638 129.621 35.245V39.117H128.542V35.401C128.542 34.745 128.38 34.244 128.056 33.897C127.733 33.549 127.295 33.375 126.744 33.375C126.176 33.375 125.725 33.556 125.389 33.92C125.053 34.284 124.886 34.81 124.886 35.496V39.116H123.807V35.4C123.807 34.744 123.645 34.243 123.322 33.896C122.998 33.548 122.56 33.374 122.009 33.374C121.441 33.374 120.991 33.555 120.654 33.919C120.318 34.283 120.151 34.809 120.151 35.495V39.115H119.06V32.546H120.151V33.493C120.368 33.15 120.656 32.885 121.02 32.702C121.384 32.519 121.786 32.426 122.225 32.426C122.776 32.426 123.264 32.55 123.687 32.798C124.11 33.046 124.426 33.41 124.634 33.889C124.817 33.426 125.122 33.067 125.545 32.811C125.968 32.554 126.44 32.427 126.959 32.427C127.47 32.427 127.926 32.533 128.326 32.745L128.327 32.746Z" fill="#63A0C4"/>
<path d="M141.411 38.806C140.912 38.526 140.519 38.128 140.236 37.613C139.952 37.097 139.81 36.5 139.81 35.821C139.81 35.15 139.956 34.556 140.248 34.041C140.54 33.526 140.937 33.13 141.441 32.855C141.944 32.579 142.507 32.441 143.131 32.441C143.755 32.441 144.318 32.579 144.822 32.855C145.325 33.13 145.722 33.524 146.014 34.035C146.306 34.546 146.452 35.142 146.452 35.821C146.452 36.5 146.302 37.097 146.002 37.613C145.703 38.128 145.297 38.526 144.786 38.806C144.275 39.085 143.707 39.225 143.084 39.225C142.468 39.225 141.911 39.085 141.412 38.806H141.411ZM144.186 37.991C144.529 37.808 144.806 37.532 145.019 37.164C145.23 36.796 145.336 36.348 145.336 35.822C145.336 35.296 145.233 34.847 145.025 34.48C144.817 34.112 144.545 33.838 144.209 33.659C143.873 33.479 143.51 33.389 143.118 33.389C142.718 33.389 142.352 33.479 142.022 33.659C141.689 33.838 141.424 34.113 141.224 34.48C141.025 34.847 140.925 35.295 140.925 35.822C140.925 36.358 141.023 36.809 141.219 37.176C141.415 37.544 141.677 37.818 142.004 37.997C142.331 38.176 142.692 38.267 143.083 38.267C143.474 38.267 143.842 38.174 144.186 37.991Z" fill="#63A0C4"/>
<path d="M155.837 33.154C156.333 33.637 156.58 34.334 156.58 35.245V39.117H155.501V35.401C155.501 34.745 155.337 34.244 155.009 33.897C154.681 33.549 154.233 33.375 153.667 33.375C153.091 33.375 152.634 33.554 152.294 33.914C151.954 34.274 151.784 34.797 151.784 35.485V39.117H150.693V32.548H151.784V33.484C152.001 33.148 152.294 32.888 152.666 32.705C153.037 32.522 153.446 32.429 153.894 32.429C154.693 32.429 155.341 32.671 155.836 33.155L155.837 33.154Z" fill="#63A0C4"/>
<path d="M167.127 36.24H161.877C161.917 36.887 162.138 37.393 162.542 37.756C162.946 38.12 163.436 38.301 164.01 38.301C164.482 38.301 164.875 38.192 165.191 37.971C165.506 37.752 165.728 37.458 165.856 37.09H167.031C166.855 37.722 166.503 38.235 165.976 38.63C165.448 39.026 164.793 39.224 164.009 39.224C163.386 39.224 162.829 39.084 162.337 38.805C161.845 38.525 161.46 38.127 161.18 37.612C160.901 37.096 160.761 36.499 160.761 35.82C160.761 35.141 160.898 34.545 161.169 34.034C161.441 33.523 161.823 33.129 162.314 32.854C162.805 32.578 163.37 32.44 164.009 32.44C164.632 32.44 165.184 32.576 165.663 32.847C166.143 33.119 166.513 33.493 166.772 33.968C167.031 34.444 167.161 34.982 167.161 35.58C167.161 35.788 167.149 36.007 167.125 36.239L167.127 36.24ZM165.76 34.281C165.577 33.982 165.327 33.753 165.011 33.597C164.696 33.442 164.346 33.364 163.962 33.364C163.411 33.364 162.942 33.54 162.553 33.891C162.166 34.243 161.944 34.731 161.888 35.354H166.036C166.036 34.938 165.944 34.58 165.76 34.281Z" fill="#63A0C4"/>
<path d="M182.556 33.154C183.052 33.637 183.299 34.334 183.299 35.245V39.117H182.22V35.401C182.22 34.745 182.056 34.244 181.728 33.897C181.4 33.549 180.952 33.375 180.386 33.375C179.81 33.375 179.353 33.554 179.013 33.914C178.673 34.274 178.503 34.797 178.503 35.485V39.117H177.412V32.548H178.503V33.484C178.72 33.148 179.013 32.888 179.385 32.705C179.756 32.522 180.165 32.429 180.613 32.429C181.412 32.429 182.06 32.671 182.555 33.155L182.556 33.154Z" fill="#63A0C4"/>
<path d="M193.846 36.24H188.596C188.636 36.887 188.857 37.393 189.261 37.756C189.665 38.12 190.155 38.301 190.729 38.301C191.201 38.301 191.594 38.192 191.91 37.971C192.225 37.752 192.447 37.458 192.575 37.09H193.75C193.574 37.722 193.222 38.235 192.695 38.63C192.167 39.026 191.512 39.224 190.728 39.224C190.105 39.224 189.548 39.084 189.056 38.805C188.564 38.525 188.179 38.127 187.899 37.612C187.62 37.096 187.48 36.499 187.48 35.82C187.48 35.141 187.617 34.545 187.888 34.034C188.16 33.523 188.542 33.129 189.033 32.854C189.524 32.578 190.089 32.44 190.728 32.44C191.351 32.44 191.903 32.576 192.382 32.847C192.862 33.119 193.232 33.493 193.491 33.968C193.75 34.444 193.88 34.982 193.88 35.58C193.88 35.788 193.868 36.007 193.844 36.239L193.846 36.24ZM192.479 34.281C192.296 33.982 192.046 33.753 191.73 33.597C191.415 33.442 191.065 33.364 190.681 33.364C190.13 33.364 189.661 33.54 189.272 33.891C188.885 34.243 188.663 34.731 188.607 35.354H192.755C192.755 34.938 192.663 34.58 192.479 34.281Z" fill="#63A0C4"/>
<path d="M199.457 33.448V37.32C199.457 37.64 199.525 37.865 199.661 37.997C199.797 38.129 200.033 38.195 200.368 38.195H201.171V39.118H200.189C199.581 39.118 199.126 38.979 198.822 38.699C198.518 38.419 198.366 37.96 198.366 37.321V33.449H197.514V32.55H198.366V30.896H199.457V32.55H201.171V33.449L199.457 33.448Z" fill="#63A0C4"/>
<path d="M214.045 32.548L211.995 39.117H210.868L209.286 33.903L207.704 39.117H206.577L204.515 32.548H205.63L207.141 38.062L208.771 32.548H209.885L211.48 38.074L212.966 32.548H214.045Z" fill="#63A0C4"/>
<path d="M219.122 38.806C218.623 38.526 218.23 38.128 217.947 37.613C217.663 37.097 217.521 36.5 217.521 35.821C217.521 35.15 217.667 34.556 217.959 34.041C218.251 33.526 218.648 33.13 219.152 32.855C219.655 32.579 220.218 32.441 220.842 32.441C221.466 32.441 222.029 32.579 222.533 32.855C223.036 33.13 223.433 33.524 223.725 34.035C224.017 34.546 224.163 35.142 224.163 35.821C224.163 36.5 224.013 37.097 223.713 37.613C223.414 38.128 223.008 38.526 222.497 38.806C221.986 39.085 221.418 39.225 220.795 39.225C220.179 39.225 219.622 39.085 219.123 38.806H219.122ZM221.898 37.991C222.241 37.808 222.518 37.532 222.731 37.164C222.942 36.796 223.048 36.348 223.048 35.822C223.048 35.296 222.945 34.847 222.737 34.48C222.529 34.112 222.257 33.838 221.921 33.659C221.585 33.479 221.222 33.389 220.83 33.389C220.43 33.389 220.064 33.479 219.734 33.659C219.401 33.838 219.136 34.113 218.936 34.48C218.737 34.847 218.637 35.295 218.637 35.822C218.637 36.358 218.735 36.809 218.931 37.176C219.127 37.544 219.389 37.818 219.716 37.997C220.043 38.176 220.404 38.267 220.795 38.267C221.186 38.267 221.554 38.174 221.898 37.991Z" fill="#63A0C4"/>
<path d="M230.317 32.74C230.673 32.532 231.106 32.428 231.617 32.428V33.555H231.329C230.107 33.555 229.495 34.218 229.495 35.545V39.117H228.404V32.548H229.495V33.615C229.687 33.239 229.961 32.948 230.316 32.74H230.317Z" fill="#63A0C4"/>
<path d="M239.348 39.117L236.771 36.216V39.117H235.68V30.247H236.771V35.461L239.3 32.548H240.823L237.73 35.821L240.835 39.117H239.348Z" fill="#63A0C4"/>
<path d="M29.8 1H24.516C23.693 1 23.026 1.667 23.026 2.49V18.082C23.026 18.905 23.693 19.572 24.516 19.572H40.108C40.931 19.572 41.598 18.905 41.598 18.082V12.798C41.598 6.282 36.316 1.001 29.801 1.001L29.8 1Z" fill="#1570A6"/>
<path d="M40.107 22.429H24.515C23.692 22.429 23.025 23.096 23.025 23.919V39.51C23.025 40.333 23.692 41 24.515 41H29.799C36.315 41 41.596 35.718 41.596 29.203V23.919C41.596 23.096 40.93 22.429 40.107 22.429Z" fill="#0D4567"/>
<path d="M20.168 2.49C20.168 1.667 19.501 1 18.678 1H13.394C6.879 1 1.597 6.282 1.597 12.797V18.081C1.597 18.904 2.264 19.571 3.087 19.571H18.679C19.502 19.571 20.169 18.904 20.169 18.081V2.49H20.168Z" fill="#126291"/>
<path d="M20.168 23.919C20.168 23.096 19.501 22.429 18.678 22.429H3.087C2.264 22.429 1.597 23.096 1.597 23.919V29.203C1.597 35.719 6.879 41 13.394 41H18.678C19.501 41 20.168 40.333 20.168 39.51V23.919Z" fill="#10537C"/>
<path d="M15.624 10.048C18.187 9.21999 20.873 9.03099 23.49 9.49899C25.053 9.76499 26.583 10.287 28.064 11.012C29.557 11.733 30.951 12.708 32.354 13.863C31.078 10.442 27.835 7.73599 24.1 6.77499C22.233 6.27899 20.256 6.20999 18.353 6.52999C16.813 6.79199 15.331 7.34299 13.996 8.11899L11.924 5.66299L8.962 13.871L17.552 12.334L15.624 10.048Z" fill="white"/>
<path d="M34.232 28.129L25.642 29.666L27.605 31.993C24.712 32.923 21.656 33.001 18.772 32.249C17.084 31.805 15.462 31.07 13.943 30.076C13.173 29.588 12.472 28.996 11.754 28.383C11.069 27.74 10.403 27.05 9.742 26.298C10.181 28.248 11.242 30.069 12.664 31.586C14.106 33.084 15.938 34.249 17.954 34.934C19.97 35.613 22.151 35.824 24.256 35.535C25.993 35.301 27.668 34.706 29.161 33.837L31.269 36.336L34.231 28.128L34.232 28.129Z" fill="white"/>
<path d="M64.752 16.91H74.364C74.356 18.093 74.283 19.04 74.148 19.73C74.037 20.296 73.839 20.704 73.56 20.941C73.251 21.201 72.748 21.38 72.064 21.471C71.226 21.583 70.1 21.64 68.717 21.64H62.924C61.722 21.64 60.695 21.598 59.873 21.514C59.152 21.441 58.575 21.29 58.157 21.065C57.808 20.878 57.544 20.595 57.352 20.201C57.12 19.721 56.956 19.044 56.866 18.189C56.765 17.252 56.714 16.047 56.714 14.607V14.083C56.714 12.59 56.765 11.349 56.866 10.395C56.957 9.52301 57.12 8.84401 57.351 8.37601C57.535 7.99901 57.79 7.73401 58.128 7.56601C58.548 7.35801 59.13 7.22001 59.857 7.15701C60.68 7.08601 61.711 7.04901 62.923 7.04901H67.84C69.372 7.04901 70.624 7.08001 71.563 7.13901C72.387 7.19101 72.997 7.31701 73.378 7.51001C73.644 7.64601 73.81 7.85101 73.914 8.17701C74.065 8.65801 74.142 9.37301 74.142 10.304V11.301H78.646V10.304C78.646 8.81401 78.503 7.62501 78.21 6.67001C77.878 5.59201 77.256 4.75501 76.363 4.18101C75.536 3.65001 74.429 3.30601 72.977 3.12901C71.652 2.96701 69.924 2.88501 67.841 2.88501H62.924C61.321 2.88501 59.923 2.96001 58.768 3.10901C57.532 3.26901 56.48 3.58201 55.64 4.04001C54.739 4.53001 54.02 5.24501 53.503 6.16501C53.018 7.02601 52.674 8.13501 52.483 9.46101C52.302 10.709 52.21 12.264 52.21 14.083V14.607C52.21 16.817 52.36 18.651 52.657 20.056C52.98 21.583 53.571 22.789 54.416 23.639C55.263 24.491 56.428 25.078 57.88 25.384C59.205 25.662 60.902 25.803 62.925 25.803H68.718C70.566 25.803 72.129 25.691 73.363 25.468C74.712 25.223 75.811 24.749 76.629 24.057C77.467 23.346 78.065 22.348 78.403 21.092C78.714 19.946 78.871 18.463 78.871 16.686V12.826H64.754V16.911L64.752 16.91Z" fill="white"/>
<path d="M98.451 19.005L86.81 3.30402H81.571V25.384H86.075V9.57702L96.886 24.064H100.167L110.657 9.64002V25.384H115.161V3.30402H109.918L98.451 19.005Z" fill="white"/>
<path d="M140.788 4.74302C140.032 4.19502 139.001 3.82202 137.634 3.60402C136.391 3.40502 134.743 3.30402 132.736 3.30402H118.295V25.385H122.799V17.642H132.657C134.668 17.642 136.324 17.53 137.58 17.307C138.947 17.064 139.984 16.676 140.75 16.118C141.565 15.527 142.123 14.737 142.409 13.77C142.657 12.928 142.783 11.907 142.783 10.735V10.211C142.783 8.99302 142.661 7.94402 142.418 7.09302C142.138 6.11302 141.589 5.32302 140.789 4.74302H140.788ZM122.798 13.478V7.46702H132.251C133.779 7.46702 135.008 7.50702 135.904 7.58702C136.89 7.67402 137.385 7.84602 137.625 7.97502C137.868 8.10602 138.01 8.27502 138.089 8.52202C138.214 8.91902 138.277 9.48702 138.277 10.21V10.734C138.277 11.405 138.214 11.942 138.089 12.335C138.009 12.588 137.86 12.765 137.607 12.907C137.411 13.018 136.925 13.221 135.886 13.333C134.99 13.43 133.767 13.478 132.251 13.478H122.798Z" fill="white"/>
<path d="M148.785 3.30402H144.281V25.384H164.689V21.299H148.785V3.30402Z" fill="white"/>
<path d="M190.763 9.583C190.763 8.335 190.615 7.275 190.322 6.431C189.99 5.472 189.379 4.713 188.506 4.171C187.704 3.675 186.637 3.34 185.246 3.148C183.966 2.972 182.305 2.884 180.31 2.884H177.198C175.204 2.884 173.543 2.973 172.262 3.148C170.871 3.339 169.804 3.675 169.002 4.171C168.129 4.712 167.519 5.472 167.186 6.431C166.893 7.272 166.745 8.333 166.745 9.583V10.579H171.249V9.583C171.249 8.858 171.313 8.3 171.439 7.926C171.513 7.706 171.637 7.574 171.869 7.469C172.073 7.375 172.576 7.208 173.646 7.138C174.557 7.079 175.796 7.048 177.327 7.048H180.178C181.709 7.048 182.948 7.079 183.859 7.138C184.874 7.204 185.386 7.355 185.637 7.469C185.868 7.574 185.992 7.706 186.066 7.926C186.192 8.3 186.256 8.858 186.256 9.583C186.256 10.202 186.21 10.698 186.117 11.055C186.07 11.237 185.983 11.352 185.817 11.45C185.662 11.539 185.271 11.703 184.376 11.797C183.577 11.88 182.472 11.922 181.093 11.922H175.676V16.02H180.57C182.086 16.02 183.296 16.06 184.165 16.14C185.155 16.232 185.583 16.406 185.751 16.503C185.946 16.615 186.05 16.748 186.105 16.961C186.206 17.351 186.256 17.896 186.256 18.582C186.256 19.371 186.201 20.002 186.093 20.456C186.025 20.741 185.897 20.931 185.676 21.073C185.506 21.184 185.074 21.387 184.095 21.495C183.228 21.591 182.02 21.639 180.504 21.639H177C175.484 21.639 174.276 21.591 173.408 21.495C172.43 21.387 171.998 21.184 171.827 21.073C171.607 20.931 171.479 20.741 171.411 20.457C171.303 20.002 171.248 19.371 171.248 18.582V17.585H166.744V18.582C166.744 19.844 166.868 20.931 167.114 21.81C167.395 22.821 167.949 23.644 168.762 24.256C169.534 24.837 170.578 25.235 171.951 25.474C173.202 25.692 174.856 25.802 176.869 25.802H180.636C182.649 25.802 184.303 25.692 185.554 25.474C186.926 25.235 187.97 24.837 188.743 24.255C189.557 23.642 190.111 22.82 190.391 21.811C190.637 20.931 190.761 19.844 190.761 18.582C190.761 16.96 190.457 15.722 189.832 14.794C189.63 14.494 189.405 14.228 189.16 13.998C189.395 13.786 189.613 13.539 189.812 13.262C190.441 12.377 190.761 11.139 190.761 9.584L190.763 9.583Z" fill="white"/>
<path d="M214.76 13.428C214.061 12.87 213.103 12.483 211.83 12.245C210.676 12.03 209.139 11.921 207.265 11.921H200.36C199.013 11.921 197.918 12.092 197.028 12.441V9.714C197.028 8.987 197.092 8.42 197.219 8.029C197.297 7.794 197.437 7.637 197.672 7.521C197.923 7.399 198.432 7.236 199.439 7.156C200.341 7.084 201.576 7.048 203.107 7.048H205.957C207.452 7.048 208.648 7.079 209.513 7.138C210.498 7.205 210.938 7.363 211.112 7.451C211.289 7.541 211.381 7.66 211.436 7.863C211.54 8.255 211.593 8.834 211.593 9.583V10.579H216.097V9.583C216.097 8.348 215.971 7.302 215.721 6.471C215.431 5.505 214.867 4.737 214.044 4.19C213.285 3.683 212.258 3.343 210.906 3.149C209.672 2.972 208.052 2.884 206.09 2.884H202.977C200.98 2.884 199.316 2.98 198.032 3.17C196.638 3.375 195.571 3.728 194.767 4.247C193.901 4.805 193.294 5.58 192.965 6.547C192.673 7.401 192.525 8.466 192.525 9.714V18.581C192.525 19.843 192.649 20.93 192.895 21.81C193.177 22.82 193.731 23.643 194.544 24.255C195.316 24.836 196.36 25.234 197.733 25.473C198.983 25.691 200.637 25.801 202.651 25.801H206.417C208.431 25.801 210.085 25.691 211.336 25.473C212.709 25.234 213.752 24.836 214.524 24.254C215.337 23.642 215.891 22.82 216.173 21.81C216.419 20.93 216.543 19.843 216.543 18.581C216.543 17.471 216.437 16.505 216.23 15.707C215.986 14.778 215.493 14.011 214.762 13.428H214.76ZM197.19 20.457C197.082 20.004 197.028 19.374 197.028 18.582C197.028 17.893 197.078 17.348 197.179 16.962C197.234 16.748 197.338 16.616 197.534 16.503C197.701 16.406 198.129 16.232 199.117 16.14C199.987 16.06 201.197 16.02 202.714 16.02H206.35C207.867 16.02 209.077 16.06 209.946 16.14C210.934 16.231 211.363 16.406 211.532 16.503C211.727 16.615 211.83 16.748 211.885 16.961C211.986 17.348 212.036 17.892 212.036 18.582C212.036 19.374 211.982 20.004 211.874 20.456C211.806 20.741 211.678 20.93 211.456 21.074C211.286 21.184 210.856 21.386 209.876 21.495C209.008 21.591 207.8 21.639 206.285 21.639H202.78C201.265 21.639 200.057 21.591 199.189 21.495C198.209 21.386 197.779 21.184 197.608 21.073C197.387 20.93 197.258 20.741 197.19 20.457Z" fill="white"/>
<path d="M241.496 9.46C241.305 8.133 240.961 7.025 240.476 6.164C239.958 5.245 239.239 4.53 238.339 4.039C237.5 3.581 236.447 3.268 235.211 3.108C234.056 2.959 232.657 2.884 231.055 2.884H228.361C226.759 2.884 225.361 2.959 224.206 3.108C222.97 3.268 221.917 3.581 221.077 4.039C220.177 4.528 219.458 5.243 218.94 6.164C218.454 7.027 218.11 8.137 217.92 9.46C217.74 10.711 217.648 12.265 217.648 14.082V14.606C217.648 16.821 217.798 18.654 218.095 20.055C218.418 21.584 219.009 22.789 219.854 23.638C220.701 24.49 221.866 25.077 223.318 25.383C224.642 25.661 226.339 25.802 228.362 25.802H231.056C233.079 25.802 234.776 25.661 236.101 25.383C237.551 25.077 238.717 24.49 239.565 23.638C240.41 22.787 241.001 21.582 241.323 20.055C241.62 18.65 241.771 16.817 241.771 14.606V14.082C241.771 12.263 241.679 10.708 241.498 9.46H241.496ZM234.105 21.513C233.283 21.597 232.257 21.639 231.054 21.639H228.36C227.159 21.639 226.132 21.597 225.309 21.513C224.589 21.44 224.012 21.289 223.593 21.064C223.244 20.877 222.98 20.594 222.789 20.199C222.557 19.721 222.392 19.044 222.302 18.188C222.201 17.242 222.15 16.037 222.15 14.606V14.082C222.15 12.598 222.201 11.357 222.302 10.394C222.393 9.522 222.556 8.843 222.787 8.375C222.972 7.998 223.227 7.733 223.565 7.565C223.985 7.357 224.567 7.219 225.293 7.156C226.116 7.085 227.147 7.048 228.359 7.048H231.053C232.265 7.048 233.297 7.084 234.119 7.156C234.846 7.219 235.428 7.357 235.848 7.565C236.186 7.733 236.441 7.998 236.625 8.375C236.856 8.843 237.02 9.522 237.11 10.394C237.211 11.348 237.262 12.589 237.262 14.082V14.606C237.262 16.046 237.211 17.251 237.11 18.188C237.019 19.043 236.856 19.72 236.624 20.199C236.432 20.594 236.168 20.877 235.819 21.064C235.401 21.289 234.824 21.44 234.103 21.513H234.105Z" fill="white"/>
</svg>
