<svg viewBox="0 0 42 42" fill="none" xmlns="http://www.w3.org/2000/svg">
<path d="M29.203 1H23.919C23.096 1 22.429 1.667 22.429 2.49V18.082C22.429 18.905 23.096 19.572 23.919 19.572H39.511C40.334 19.572 41.001 18.905 41.001 18.082V12.798C41.001 6.282 35.719 1.001 29.204 1.001L29.203 1Z" fill="#1570A6"/>
<path d="M39.51 22.429H23.918C23.095 22.429 22.428 23.096 22.428 23.919V39.51C22.428 40.333 23.095 41 23.918 41H29.202C35.718 41 40.999 35.718 40.999 29.203V23.919C40.999 23.096 40.333 22.429 39.51 22.429Z" fill="#0D4567"/>
<path d="M19.571 2.49C19.571 1.667 18.904 1 18.081 1H12.797C6.282 1 1 6.282 1 12.797V18.081C1 18.904 1.667 19.571 2.49 19.571H18.082C18.905 19.571 19.572 18.904 19.572 18.081V2.49H19.571Z" fill="#126291"/>
<path d="M19.571 23.919C19.571 23.096 18.904 22.429 18.081 22.429H2.49C1.667 22.429 1 23.096 1 23.919V29.203C1 35.719 6.282 41 12.797 41H18.081C18.904 41 19.571 40.333 19.571 39.51V23.919Z" fill="#10537C"/>
<path d="M15.027 10.048C17.59 9.21999 20.276 9.03099 22.893 9.49899C24.456 9.76499 25.986 10.287 27.467 11.012C28.96 11.733 30.354 12.708 31.757 13.863C30.481 10.442 27.238 7.73599 23.503 6.77499C21.636 6.27899 19.659 6.20999 17.756 6.52999C16.216 6.79199 14.734 7.34299 13.399 8.11899L11.327 5.66299L8.365 13.871L16.955 12.334L15.027 10.048Z" fill="white"/>
<path d="M33.635 28.129L25.045 29.666L27.008 31.993C24.115 32.923 21.059 33.001 18.175 32.249C16.487 31.805 14.865 31.07 13.346 30.076C12.576 29.588 11.875 28.996 11.157 28.383C10.472 27.74 9.806 27.05 9.145 26.298C9.584 28.248 10.645 30.069 12.067 31.586C13.509 33.084 15.341 34.249 17.357 34.934C19.373 35.613 21.554 35.824 23.659 35.535C25.396 35.301 27.071 34.706 28.564 33.837L30.672 36.336L33.634 28.128L33.635 28.129Z" fill="white"/>
</svg>
